<svg width="198" height="165" viewBox="0 0 198 165" fill="none" xmlns="http://www.w3.org/2000/svg">
<path d="M16 65.997H42.8036C50.444 65.997 57.7025 66.264 64.3127 61.7442C68.3157 59.007 71.1874 55.3672 73.4759 51.1477C77.2731 44.1474 79.8519 36.0354 88.4691 33.711C91.5532 32.879 94.899 32.9986 98.0655 32.9986H110.309H152.335C157.732 32.9986 163.528 33.5965 168.88 32.9031C173.687 32.2801 178.329 30.1444 182.116 27.1681C186.802 23.4859 189.197 18.0497 191.794 12.8695C193.864 8.74266 196.719 4.4359 198 0.000111419H134.796H119.244C113.948 0.000111419 108.975 -0.0528382 104.022 2.14985C98.6002 4.56073 94.3636 8.68267 91.5495 13.8595C87.9506 20.4792 85.5134 28.5456 77.88 31.6478C74.2274 33.1322 70.1655 32.9986 66.2982 32.9986C59.3991 32.9986 51.9596 32.2082 45.12 33.0939C38.0587 34.0086 31.6081 37.8292 27.4128 43.5581C24.8503 47.0572 23.1487 51.2467 21.2128 55.1075C19.4569 58.6097 17.0879 62.2312 16 65.997Z" fill="#048CFC"/>
<path d="M0 165H24.75C34.8186 165 44.4507 165.063 52.1271 157.397C56.1399 153.389 58.3047 147.884 60.8015 142.89L73.5085 117.48C76.7336 111.03 79.3931 103.641 86.46 100.49C89.7452 99.0248 93.4933 99 97.02 99H108.57H152.46C160.139 99 168.703 100.155 175.89 96.9171C183.589 93.4488 187.504 87.4857 191.152 80.1901C193.423 75.6466 196.594 70.8824 198 66.0001H134.31H119.13C113.873 66.0001 108.817 65.9535 103.95 68.3038C98.9644 70.7111 94.9588 74.3996 92.2109 79.2001C88.275 86.0766 86.1214 94.1873 78.21 97.6226C74.3483 99.2997 69.7848 99 65.67 99C56.8148 99 46.9798 97.6652 38.61 101.001C30.5817 104.201 26.6716 111.164 23.0185 118.47L7.50852 149.49C5.02867 154.45 1.53502 159.671 0 165Z" fill="#048CFC"/>
</svg>
