<svg width="182" height="66" viewBox="0 0 182 66" fill="none" xmlns="http://www.w3.org/2000/svg">
<path d="M0 65.997H26.8036C34.444 65.997 41.7025 66.264 48.3127 61.7442C52.3157 59.007 55.1874 55.3672 57.4759 51.1477C61.2731 44.1474 63.8519 36.0354 72.4691 33.711C75.5532 32.879 78.899 32.9986 82.0655 32.9986H94.3091H136.335C141.732 32.9986 147.528 33.5965 152.88 32.9031C157.687 32.2801 162.329 30.1444 166.116 27.1681C170.802 23.4859 173.197 18.0497 175.794 12.8695C177.864 8.74266 180.719 4.4359 182 0.000111419H118.796H103.244C97.9484 0.000111419 92.9752 -0.0528382 88.0218 2.14985C82.6002 4.56073 78.3636 8.68267 75.5495 13.8595C71.9506 20.4792 69.5134 28.5456 61.88 31.6478C58.2274 33.1322 54.1655 32.9986 50.2982 32.9986C43.3991 32.9986 35.9596 32.2082 29.12 33.0939C22.0587 34.0086 15.6081 37.8292 11.4128 43.5581C8.85026 47.0572 7.14869 51.2467 5.21284 55.1075C3.45691 58.6097 1.08793 62.2312 0 65.997Z" fill="#048CFC"/>
</svg>
